#!OML:ASF G:\JayActor3\Patient Classification 1\Patient 1\Session 5\male.ASF
:FULLY-SPECIFIED
:DEGREES
787
root 28.3832 15.5219 -5.48059 -124.298 -85.6048 134.449
lowerback 36.1236 -0.437703 0.58621
upperback 10.4501 -1.91418 -2.68741
thorax -6.53964 -1.36444 -2.38751
lowerneck 2.08433 1.30504 4.29138
upperneck -21.9499 1.46452 -0.86431
head -6.99667 0.14918 -1.06639
rclavicle 6.36111e-015 1.78906e-015
rhumerus -27.1007 1.23814 -89.4923
rradius 47.9288
rwrist -2.42857
rhand -21.4167 -12.0007
rfingers 7.12502
rthumb 4.97205 -41.9224
lclavicle 6.36111e-015 1.78906e-015
lhumerus -27.8852 -2.1846 82.8364
lradius 39.0772
lwrist 23.0322
lhand -20.9948 15.4282
lfingers 7.12502
lthumb 5.3794 45.34
rfemur -66.7673 0.0408733 18.0173
rtibia 57.3153
rfoot 4.10948 -2.09751
rtoes -11.6343
lfemur -46.2408 14.5389 -30.6987
ltibia 72.0297
lfoot -1.101 -10.0147
ltoes -23.3513
788
root 28.5046 15.5084 -5.47342 -123.95 -85.5032 134.024
lowerback 36.1838 -0.440257 0.496413
upperback 10.4393 -1.95511 -2.72735
thorax -6.57421 -1.38452 -2.36624
lowerneck 2.06887 1.32179 4.2739
upperneck -21.9257 1.48079 -0.889568
head -6.98534 0.161374 -1.07246
rclavicle 2.5842e-015 2.00773e-014
rhumerus -27.1759 1.23401 -89.5578
rradius 47.833
rwrist -2.34673
rhand -21.4104 -11.9763
rfingers 7.12502
rthumb 4.9781 -41.8978
lclavicle 2.5842e-015 2.00773e-014
lhumerus -27.9995 -2.10051 82.7958
lradius 38.9658
lwrist 23.0317
lhand -21.0237 15.4228
lfingers 7.12502
lthumb 5.35142 45.3352
rfemur -67.133 -0.0720737 17.9192
rtibia 59.5081
rfoot 3.29678 -1.70839
rtoes -12.5239
lfemur -46.6454 14.6195 -30.9386
ltibia 72.032
lfoot -1.16803 -10.0188
ltoes -23.2835
789
root 28.6239 15.4967 -5.4674 -123.504 -85.4288 133.518
lowerback 36.2305 -0.454034 0.42341
upperback 10.4288 -2.00253 -2.76083
thorax -6.60407 -1.4073 -2.34483
lowerneck 2.06026 1.33594 4.2613
upperneck -21.929 1.49504 -0.905075
head -6.98433 0.170204 -1.0762
rclavicle -9.34288e-015 -6.75868e-015
rhumerus -27.2469 1.22169 -89.6229
rradius 47.7385
rwrist -2.2632
rhand -21.4068 -11.9532
rfingers 7.12502
rthumb 4.98153 -41.8746
lclavicle -9.34288e-015 -6.75868e-015
lhumerus -28.0896 -2.02593 82.7544
lradius 38.8322
lwrist 23.0406
lhand -21.0514 15.4355
lfingers 7.12502
lthumb 5.32473 45.3486
rfemur -67.4722 -0.175158 17.8177
rtibia 61.7754
rfoot 2.53179 -1.58135
rtoes -13.3688
lfemur -47.0578 14.6896 -31.1597
ltibia 72.0157
lfoot -1.19048 -10.0312
ltoes -23.135
790
root 28.7414 15.4869 -5.46232 -123.014 -85.386 132.98
lowerback 36.2677 -0.480073 0.379114
upperback 10.4167 -2.05348 -2.788
thorax -6.63292 -1.43122 -2.33065
lowerneck 2.05882 1.34554 4.24563
upperneck -21.9519 1.50522 -0.905726
head -6.99132 0.175281 -1.07448
rclavicle 4.81059e-014 5.92378e-014
rhumerus -27.3197 1.20002 -89.6854
rradius 47.6483
rwrist -2.18138
rhand -21.3984 -11.9308
rfingers 7.12502
rthumb 4.98968 -41.852
lclavicle 4.81059e-014 5.92378e-014
lhumerus -28.1575 -1.96525 82.7144
lradius 38.6827
lwrist 23.046
lhand -21.0728 15.4703
lfingers 7.12502
lthumb 5.3041 45.3839
rfemur -67.7712 -0.276927 17.7275
rtibia 64.0976
rfoot 1.80431 -1.70446
rtoes -14.1369
lfemur -47.4745 14.7492 -31.3519
ltibia 71.9838
lfoot -1.17392 -10.0597
ltoes -22.9333
791
root 28.8572 15.4789 -5.45796 -122.59 -85.3743 132.52
lowerback 36.2925 -0.516002 0.368772
upperback 10.4054 -2.10345 -2.80949
thorax -6.6571 -1.45424 -2.32888
lowerneck 2.06612 1.34968 4.22955
upperneck -21.9901 1.51011 -0.894172
head -7.00515 0.176246 -1.06853
rclavicle 2.5842e-014 3.89618e-014
rhumerus -27.392 1.16906 -89.7473
rradius 47.5605
rwrist -2.10474
rhand -21.3963 -11.9114
rfingers 7.12502
rthumb 4.9917 -41.8326
lclavicle 2.5842e-014 3.89618e-014
lhumerus -28.1988 -1.91257 82.6746
lradius 38.5179
lwrist 23.029
lhand -21.0779 15.5088
lfingers 7.12502
lthumb 5.29909 45.4225
rfemur -68.0179 -0.376924 17.6566
rtibia 66.4542
rfoot 1.11415 -2.03776
rtoes -14.7558
lfemur -47.8953 14.8002 -31.507
ltibia 71.9364
lfoot -1.12188 -10.1047
ltoes -22.7009
792
root 28.9715 15.473 -5.45406 -122.253 -85.3944 132.156
lowerback 36.3116 -0.562646 0.39725
upperback 10.392 -2.15172 -2.82554
thorax -6.68234 -1.47596 -2.34241
lowerneck 2.07272 1.35035 4.21387
upperneck -22.0267 1.51133 -0.876918
head -7.01851 0.174975 -1.06053
rclavicle -3.18055e-015 -1.39149e-015
rhumerus -27.4685 1.13622 -89.8067
rradius 47.476
rwrist -2.0387
rhand -21.3905 -11.8984
rfingers 7.12502
rthumb 4.99728 -41.8194
lclavicle -3.18055e-015 -1.39149e-015
lhumerus -28.2222 -1.86967 82.638
lradius 38.347
lwrist 22.9857
lhand -21.0701 15.5338
lfingers 7.12502
lthumb 5.30669 45.4473
rfemur -68.1995 -0.478933 17.6071
rtibia 68.8215
rfoot 0.487304 -2.50999
rtoes -15.2765
lfemur -48.316 14.8388 -31.6216
ltibia 71.8718
lfoot -1.04652 -10.1639
ltoes -22.4734
